/* XPM */
static char * coin[] = {
"124 124 88 1",
"A c #13560E",
"B c #16191A",
"C c #191D1C",
"D c #195E10",
"E c #1E1D22",
"F c #1E2321",
"G c #201E24",
"H c #206513",
"I c #212425",
"J c #226D12",
"K c #242629",
"L c #262B29",
"M c #292C2C",
"N c #2D3133",
"O c #2E7C18",
"P c #313534",
"Q c #317E17",
"R c #33363A",
"S c #338418",
"T c #373C3F",
"U c #378C18",
"V c #398C15",
"W c #3A9213",
"X c #3D4248",
"Y c #41464B",
"Z c #464B50",
"a c #4C5156",
"b c #545A5D",
"c c #576063",
"d c #616B6C",
"e c #65767A",
"f c #667174",
"g c #69797E",
"h c #6D7D81",
"i c #6F787A",
"j c #737E83",
"k c #748489",
"l c #7A8385",
"m c #7D8586",
"n c #7D898D",
"o c #828C8E",
"p c #848E91",
"q c #868A89",
"r c #869193",
"s c #879399",
"t c #899395",
"u c #8A8F92",
"v c #8D9699",
"w c #8E999D",
"x c #919B9F",
"y c #949DA1",
"z c #96A2A7",
"0 c #98A09F",
"1 c #999D98",
"2 c #9BA3A3",
"3 c #9FA9AD",
"4 c #A1A39E",
"5 c #A3ABAD",
"6 c #A4A9A4",
"7 c #A5AEB3",
"8 c #A7B0B5",
"9 c #A9ADA8",
"! c #AAB2B4",
"$ c #ABB5B9",
"% c #B0B7BA",
"& c #B1B7B4",
"( c #B3BBBC",
") c #B3BDC1",
"* c #B5BAB6",
"+ c #BABEB6",
", c #BABEB9",
"- c #BCC0B7",
". c #BCC3C3",
"/ c #BEC1BA",
": c #C1C4BC",
"; c #C2C6C2",
"< c #C6C9C1",
"= c #C9CDC6",
"> c #CACEC9",
"? c #CED2CA",
"@ c #D3D5CD",
"[ c #D3D6D1",
"] c #D6D8CF",
"^ c #D7D9D0",
"_ c #DADBD3",
"{ c #DFE0D7",
"| c #E0E1D7",
"} c #E5E6DD",
"OOOOOOOOOOOOOOSOOJOJOJJOOSOOOOOOJJOJJJSOJJJJJJOSOOSOOOOJJHJOOOJOOOOOOJJOOJOJOOJOJOJOOOOOOOOOOOOOOOOOOOJJOOOOOOJJOOOOJJJJJOOO",
"OOOOOOOOOOOOOOOOJOJOOJJJOSOSOOJOOOJJJJOOOHHHHHOOOOOSOOOHHHJOOOOOJOOOOOOOOJOJJOOJJOJJOOOOOOJOOOOOOOOOOOOOJOOOOJJOOOOOJDHHJOJO",
"OOOOOOOOOOJOOOOOOOJOOJOOSOOOOOOJOOJJJJJOOHJJHHOSSOOOOSJHHHJJOOOOOOOOOOOOJOJOOOJJOOJOOOOOOOOOOOOOOOOOOOOJOOOOOJJOOOOOJJHHHOOO",
"OOOOOOOOOOOOOOOOOOJOJOJOSOOOOOOOOJOJOOOOOHJHHHOOSSOJOSJHHHJOOOOOOOOOOOOJOJOSOOOOOJJOOOOOOOJJSOOOOOOOOJOOOOOOOOJOOOOOOJHJJOOJ",
"OOOOOOOOOOOOOOOOOOOOOOJOOOOOOOOJOOJOJOJOOJOHJJOOOSOOOOOJJHJOOOOOOOOOOOOOOOOJOJOOOOOOOOOOOOJOOSOOOOOOOOSOOOOOOOJOOOOOJJJDJOOO",
"OOOOOOOSVVVOOOOOOOOSUUUVVSVVSOOOJOOJOOOOOOSSSOOOOOOJJOOOOOOOOOOOOOSUUVSOOOOOJOJSUUVSOOOJHHHHOOOOOJJOSUSSOJOJJJJJOOOOOOSOOOOO",
"OOOOSOOSVVVSOOOOSOOUVVVUVSUVSHJJJOOOOOOJOSSSSSOOOOOOOOOOOOOJJOOOOOSVUVUOSOOOOOJUVVVSOOOOHJJJOOOOOOOOSUSUOOJJOJOOJOOOOOOOOSSO",
"OOOOOOOUUVVOJOOOSSOUVVVUVVSVSOOJJOOOJOOOOSSSSSOOOOOJOOOOOOOOOJOOOOSVVVVSOOOOOJJUVVVSOOOOHJJJOOOOOOOOSSSSOOOOOJJJOOOOOOOOOSOO",
"OOOOOOOUUUVSOOOOSSOSVUUVUUVUSOOJJJOOOOOOOOOSSOOOOOOOJOOOOOOOJJOOOJSVVVUOOOOOOJJUVVVSOOSOHHHHOOOOJOOOOSSSOOOOOOJJJOOOOOOOOOSO",
"JJJOOOOOSSOOOOOOOOOSUUUSJOOOOJJJOOOOOOOOOOOOOOOOOJJJJJOSSSSOOOOOOJSVUUSOOOOOOOOOSSOOOSOOJOOJOOOOOOOOOOOOOSSSOOOOOOOOOOOOOOOO",
"JHHJSOOJOOOOOOOOOJJSUVVSJJHHJOOOOOOSOOOOOOOOJOOOOOJOOJSVVVUOOOOOOOSUUVUSOSOJJOOOOOOOOOOOOOOOOOOOOSSSOOOJOVUVSOOOOOOOOOOOOOOO",
"HHJOOOOOOOOOOOOOOOOSSSSQJJHJJOOOOOOOOOOOJOOOOJOOJOOOOOQVVVUJOOOOJOSUUUUSSOOJOJOOOOOOOOOOOOOOOOOOSSSOOOOJSUVVSOOOOOOOOOOOOOOO",
"HHHJOOOOOOOOOOOOOOOSUSUSJHHHJOOOOOOOOOOOJOOOOOOOOOOOOOSUVVSOOOJOOOSUUVUSSSOOOOOOOOOOOOOOOOOOOOOOSSSSOOOOSVVVSOOOOOOOOOOOOOOO",
"JJHJJOOOOOOOOOOOOOOOSOSOJJJJJOOJOOOOOOOOOOOOOOOOOOOOOSSVVUUOOOOOOOOSSQSOOOOOOOOOOOOOOOOOOSOSOOOOOOOOOOOOSUVUSOOOOOOOOOOOOOOO",
"OOOJHHHOOOOOSSOSSVVOJOOOOOOOOOJJOUUVUOOOOOOOOSOOOOUVUVVVVVUOOOOOOOOHHHJOOOOOOOOOOJOOOOOSUUVUOOOOOOOOOOOSSSSSOOOOSUUVUOOSSOOO",
"OOOHHJJOOOOOSSSSVVVSOOOOOOOSOOOOOUUVUOOOOOOOOOOOOOUVVVVVVVSOOOOSSOOHHHJOOOOOOOOOOOOOOJJSVUVVOOOOOOOOOSSSSSSSOOOOSVUVSOSOOSSS",
"OOOJHHHOOOOSSSSSVVVOOOOOOOOOOOOJOUUVUOOOOOOOOOOOOOSVUVVVVVUOOOOSSOOJHHHOOOOSSOOOOOOOOOOOVVVSOOOOOOOOOSSSSSSSOOOOSVUVUSSOSSOO",
"OOOOJHHOOOOOSSSSVSVSOOOOOOSOOOOOOVVVUOOOOOOOOOOOOOSVVVUVVVSOOOOSOOOHJHJOOSOOOOOOOOOOJOOOVUUSOOOOOOOOOOSSSSSSSOOOOUUVUSOOOSSS",
"OOOOOOOOOOOOOOOOOJOOOOOOOOOOJOJJOVVVUOOOOOSOOOOOOOOOOOOOOOOOOOOOOOOJOOOOOOOSSSSUUUUSOOSOOOJOOOOOSVUUOJJOOOOOOOOOOOOOOOOOOOOO",
"SOOOOSSOOOOOOOJOOJJOOOOOOOOOOJJOSVVVVOOOOOOOOOOOOOOOOOOOOOOOOOOOOOOOOOOOOOOQSSSUUUVUSOSSOOOJOOOOSVUVSOJOOOOOOOOOOOOOOOOOOOOO",
"OOOOSOSOOOOOOOOJOJOOOOOOOOOOJOOJOVVVVOOOOOOOOOOJOOOOOJOJOOOOOOOOOOOOOOOOSOOSSSSVVVVUSOSOJOOOOOOSUVUUSJOJOOOOOOOOOOOOOOOOOOOO",
"OOOOSSSOOOOOOOJJOOOOOOOOOOOOOOOOOVVVVOOOOOOOOOOOOOOOOOOOOOOOOOSOOOOOOOOOOOOSSSUVVVVUUSSOOOJOOOOOUUUUOOOOOOOOOOOOOOOOOOOOOOOO",
"OOOOOJJOOOOOOSOOOOOOJJJOSSUSSOOOOOSOOOOOOOOOOOJHJHJJJJJAAAAAAAAAAAAOOOOOOOSOOOOUVVVSSSSSOJOJOOOOSOOOOJOOOOOOOJHJJOOOOOOOOOOO",
"OOOJHHHJOOOOOOOOOOOOHHHJSUUUSOOOOOJOOOOOOOOOOOHHHHHHHHHLFFIGIIEIIEAOOOOSOSOOOOJUVVVOOSOOJOOOOOOOOOOJOOOJSOOOJHHHJOOOOOOOOOOO",
"OOOOJJHJOOOOSJOOOOOJHHHHSUSUSOOOOJJOOJOOOJOOOOJHHHHHHHHAKLAALLLALIAOOOOOOSOOOOOUVUVSOOOOOOOOOSOOOOOOOOJOOSOOOHHHJOOOOOOOOOOO",
"OOOOJHHOOOOOSSSOSOOJHJHHSSUSOOOOOOJOOOOOOOOOOOJHHHHHJJHACCCCCCCAEAASOOSSSOOOOJOSUVVSOOOOOOOOOOOOOOOOOOOOOOOOJHJHJOOOOOOOOOOO",
"OOOJHHHJOOJOOJOOOOOOJOJJSUSUUOSOOJOJJOJAAAAJOOOJJOHAAAA12640401mopdAAAASOOOOJJOOSOSOOOOOOOOOSSSSOOOOOOOOOJJOOOOOOOOOOHJJJOOO",
"OOOJHHHJOOOJHHHJOOOOOOOOUVVVVSSSSOOOOOJFIGAJOJOJOOJKFEP_}}}}}}_%(.qBAEAOOOJOOOOOOOOOOOOOOOOOUUUUOOOOOOOOOJJDJOOOOOOOJHHHJOJO",
"OOOJHHHJOJJJHHHJOOOOJOOOUUVUUSSSSOOOOOJALIAJJOOOJOJAKFR?_]^^_{?77$mAAIASOOOOOOOOOOOOOOOOOOOOSUUUOSSOOOOOJJHHJOOOOOOOOHJHJOOO",
"OOOJHHHJOOJJHHHJOOOOOOOOUVVUSSSSSOOOOSJACCAJOOOOOOJAFBM@|^{_^_?77(mCAIAOOOOOOOOOOOOOOOOOOOOOSVUSOSSOOOOOJHHHJOOOOOOOOJJHJOOO",
"OOOOOSOJJOJJJJJJOOOOOOOOSOOSOOOOOHHAAAAmpumAAAAAAAApnpr]_^____@*+:qCLIAOOOOOOOOOOOOOOOOOOOOOSOSSOJJJOOOOOJOOOOSOOOOOOOJJJOOO",
"OOJSVVVSOJOOSOOOOOOOOOOOOJOOOOOOJHAAIEN$$)7MFFFIIET%%%(^_^____@/:<qCLGAOOOOOOOOOOOOOOOOOOOOOOOOOJDJDOOOOOOOOOJOOOOSSOOOOOSOO",
"OOOSVVVOOOOOOOOOOOOOOOOOOOOOOOOOOHHLAFP5883AAAAALIA888$___^__^@/-=qCLIAOJOOOOOOOSOOOOOOOOOOOOOOOJHHHOOOOOOOOOOOSOOSOOJOOOSSO",
"OOOSVVVOOJOOOOOOOOJOOOOJJOJJOOOOOHHAIIN58$3FBCCCEAR$87$____^^^@::?qCAEASOOOOJOOOSSSOOOOOOOOOOOOOHHHHOOOOOOOOOOOOOOOOOOOJOOOS",
"OOOSUSSOOJOOOOOOOJJOOOOOJOOJJOOJOOJLAIP7$8849996669***/____^^^?zz5lNTRAJJJOOOOOOJOOOOOOOOOOOOJJJJHHHOOOJJOOJOSSSOOOOOOOOOOOO",
"OOOOOOOOJOOOOOOJHHHOOOOOJOOOJOOOOOJAIFN585$}}}}|}}|//:/__^{^_{=vvxhTYYAHHHHOOOOHHHHOOOOOOOOOHHHHHHJHOOOOJOOJSVVVSOOOJOOOOOOO",
"OOOOOOOOOJOJOOOJHHHOJOJJOJOOOOJOOOOAAFN5778]]]^^]_@+::/___^_^{<swzjTXXAJHHJOOOJHHHHOOOOOOOOOJHJHHJHHOOOOOOOJOVVVUOOOOOOOOOOO",
"OSOOOOOOOOJOOOOHHHHOOOOOJOJOOOOOJOOAEEN$)()_{_____@++++__^{{{{=xx3lTXXAJHHJOOOOHHHAOOOSOOOOOHHHJHHHHOOOOOOOJSVVVSOOOOOOOSOOO",
"OSOOOOOOOOOOOOOJHHHOOOOJJOOOJOOOOOOAAAAddcf/;.;_]__@==@__^?../2abbAAAAAJHHJOOOOJHHHJOOOSSOOOOHOJJJHJOSSSOOOOOOSSOOOOJJJJJOOO",
"UUUUUUUSOOOOOOOOOOOOOJOJOOOOOOOJOJOOOVSCAAM377$___________=33$nAFCAOOOOOOOOOOOOJHHJOSSSOOOOOOJOOOOOOSVUVUOOOOJJJJOOOOHHJJOJO",
"SUUSUUSOOSOOOOOOOOJOJOJJOOOOOOOOOOOOJVOMMAR7878____^]^^]^_>37$pFMKAOOOOJJJOOOOOJHHHOSOOOOOOOOOOOOOSOSVVVSOOOOOJOJOOOJHHHJOOO",
"SUUSSUUSOOSOOOOOOJOJOOJOOOOOOOOOOJJOOVOEFEN$($._}__}}}}}}}^8!)tFAFASOOOOOOOOOOOJHHHOSOOOOOOOOOOOOOOOSVVVSOOOOJOJOOOOJJHHJJJJ",
"SSSSSSSOOOOOOOOOOOOOOJOJOOOOOOOOOOOOOUSDAAAddcf;;<,qqqmqqumiijdRRTAAAAAOOOOOOOOJJJHSSSOOOOOOOSOOOOOOSUUUSOOOOOJJOOOOJJJJJJOO",
"OOOJJJJOOOOOOOOSUUUSOOOOSUUVSOJOJOOOOOJOSSOACAN5572XXXTYXXYXXXXZZZREKEAOOOOOOJOOOOOUVUVSOOOOOSOOOOOOOOOOOJOJJJOJJOOOOOOOOOOO",
"OOOOHJJJOOOOOOOUVUVSJOOOSVVVUJOOOOOOOJOJOOJALIT737zaZZZaaaZYZZZYXXTAAAAOOJOOOOOOOOOUUUVSOOOOSOOSOOOOOOOJJOJOOJOOOOOOJOOOOOOO",
"OOOJJJHOOOOOOOOVVVVOOOOSUVVVSOOOOOOJOOOJOOJIIER)$)7ZZYYaaaZZZZZYXZTCCBASOOOOOOOOOOOUUVVSOOOOSOOSOOJOOOOOOOOOOOJJJOJJOJJOOOOO",
"OOOJJJJJOOOOOOOUVVUSOOOOVVVVUOJJOOOOJJOOOOOAAAAcccbaaaZZZZZTTTTRRNZificAAAAOOOOOOOOUUUVSOOOOOOOOOOJOOJOOOOOOOOJOOOOOOOOOOOOO",
"OOOOOOOOOOOJJJJOOOJOOOOJVVVVSOOOOHHHJOOOJSUVVWQCCBIbbbcZZYXNNNNMMIa7y7jBIGAOJOOJOOJOOOOOOOOOOOOOOJOOOOOOOOOOSUUUSOJOOJJOOOOO",
"OOOOOOOSOOOJHHHJOOOOOOOOVVVVSOOOJHHHJJOOOSUVVWQLLLPbcccZZZYRRRRNNIazwyiFLIAOJOOOOOOOOOJOOJOOOOOOOOOOOOOOOOOJSUVVSOOOOJJOOOSO",
"OOOOOOOOOSOOHHHJOOOOOOOOVVVVSOOOOHHHHJOOOSUVWWQAICIaaaZYYYXNMMMMKEZywziBFCAOOOSOOSSOOOOOOSOOOOOOOJOJOOOOOOOOSVUVUOOOOOOJOOOO",
"OOOOOOOOSSSJHHHJOOOOOOOOVVVWSOOOOHHHHJOOOSQAAAAqooq6446tupu969vjjfu*!&6mqpfAAAAAAAAOOOOOOOOOOOOOOOJOOOOOOOOJSUUUSOOOOOOOOOOO",
"OOOOUSSOOOOOJOJOOOOOOOOOOOOSOOOOOOOJOOOOOOJIGBR%%%$;<<<(%$)}}}>yyx5:::,($.oCIKIIIGASOOOJOJOOJJJJSSSSOSSSOOOJOOSOOOOOOOOOOOOO",
"OJOUVVVSOOOOOOOOOSSOOOOOOOOOOOOOOOOOOOJOOOJLLIT8778/://887(_@]<vws4/+/*78%qFLLLAAIAOOOOOOOJOHHHHSUSSSUSUSJOOOOOOOOOOOOOOOOOO",
"JOOSVVVOOOOOOOOOOOOOOOOOOOSOOOOOOOOOOOOOOOJAFBP7777:/::$!7%|]|=sssy:,:*77$mBECCAICAOJOOOOOOOHHHHSSSSSSSUSOOOOOOOOOOOJOOOOOOO",
"OJJSVVVSOOOOOOOOOOSSOOOOOOOOOOOOOOSOOSJAAAAutov>>>>@@%$888,|__[;;=.!!8%>>[;6996suvfAAAASOOOOHJHJSSUSSSSUSOOOOOOOOOOOOOOOOOOO",
"JOOSSSSOOOOOOOJOOSOOOJJOOOOOOJOOOOOOOOJIIEP$)$)_____@88777)_______>585){___}|}[$$)uBIEAOOOOOJJJOOSSOOSOSOOOOOOOOOOOOOJJJOOOO",
"OOOOOOOOOOOOOOOOOOOOOOOOOOOOOHHHJJOJOOJLAFR7878__]__]!88!!({]__]_]>888)____]__<78%qELIAOJOOJJOOOOOOOOOOOOOOOOOOOOOOOOJHHJJJO",
"OOOOOOOOOOOOOOOOOOOOOOOOOOOSOHHHJOOOOSJCEEN3778^]___]!8777%{__]]__=577%____]__=77)nAFCAOOOOOOOOOOOSOOOOOOOOOOOOOOOOOOHHHJJJO",
"OOOOOOOOOOOOOOOOOOOJOOOOJOOOJHHHJOOAAAAlmjq=<=>___]_],+*)>?___]__][>>??_______^=;?5fijAAAAAOJOOOOOSOOOOOOOOOOOOOOOOOJJHHHJOO",
"OOOOOOOOOOSOOOOOOOOOOOOOOOOOJHHHJJOAICN$$$$^___^__]__:/-={______]________^_____|_|.yz7fBIEAOOOOOOOOOOOOOOOOOOOOOOOOOOHJJHOOO",
"OOOOOOOOOOOOOOOSUUUOOOOOOOOOOJOOOJJAIAP2557__]_^__]_]/:-;]]____]_[____^__^^^____]{%swyfCAIASOOOOOOOOOOOOSUSVSOOOOOOOOOOOOOOO",
"OOOOOSOOOOOOOOOUVVVSJOOOOOOOOOOOOSOAIIN5757^^]______]-++=_____]]______^____]_____{%rwydCAGAVOOOOOOOOOOOOSVUVSOOOOOOOOOOOOOOO",
"OJOOOSOSSOOOOOOSUVVSOOOOOOOOOOJOOSOAIIP9*&*^___^__^__@==@]_]____^_________]_____]{;99*iCAGAUOOOOOOOOOOOJSVUUSOOOOOOOOOOOOOOO",
"OOOOOOOOOOOOOOOUVVVSJOOOOOOOOOOOOOJAIFR+/+;]]]^^^________]___________[_^________]_=//=mCAAAUOOOOOOOOOOOJSVVUSOOOOOOOOOOOOOOO",
"OJOHJJJOOOSOOSOSSOOOOOOOJOOOOOOOJOOAIIP+-+:___^]________^^_|___^_^^____^^^{^^{___{?**:lAAFASOOOOOSSSOOOOOSSOOOOOOSSSSOOOOOSS",
"OOOHHHHOOSOSSSOOJOOOOOOOOOOJOOOOOOOAAAM*-*:{____]__]]]_]]_________^^__^_]]^^^^_^^{?--=lBFEAUSSOOSVUUOOOOOOOOOOOOOUUUSOOOOOOO",
"OOJJHHHOOOOOSOSOOOOOOOOOOOOOOJOAAAAiljl=@@@__^_^^___^]_^^^]^^_^__^___^__]{]{{__]]^=8!$rcddaAAAAOOVVUOOOOOOOOOOOOOSUUSOSOOOOO",
"JJJHHHHOOOSSSSSOOOOOOOOOOOOOOOOAGIIszxz^_^{__{__]_______]{^^__^{_^^^____{]]^^_^]__<78$yjhkcCIEASUVUVOOOOOOOOOOOSSUUUSOOOSOOS",
"OOJJHJHJOOOSSSSOOOOOOOOOOOOJOOOAIAInxvw^______^_]_______^^{{]{^]^_______^^{^^^]]__<88$wggjcAAGAOSVUUSOOSOOOOOOOOOSSSSOOOOOOO",
"OOOOJOOJJJJSVUUOOOOOOOOOOOOOSUUAFKInwsw^___^___^]_______]{{^^]{{_____^__^^{^^^^{^_=!8$zghkcAAIASUVVVUUVVSOOOOOOOOOOOOHHHJOOO",
"OOOOOOJJJJJSVVVSOOOOOOOOSOOSSUVAFAIfkhhy2z5]_{^^_]______]^^^^{{]______=w000x0v0xx0tnknjghjcFIIAOUVVVVVUVSOOOOOSOOOOOJHJHJOOO",
"OSOOOOJJOOJUVVVSOOOOOOOSOOSOSVUAIIAdhgjvww2]___{________{^^^{^^^_^____;ptpnppprpppngjggigkcAAFASSVVVVVVVSOOOOOOOOOOOJHJHJOOO",
"OOOOOOOJJJJUVVVOOSSOOJJOOSSOSVVAFKIfhhhw0wz@___]______]___]_^{]]^@__]_/rtttrprttptohjhhhhkcAAGASSSSVUUUVOJOOOOOOOOOOOJJJJOOO",
"SSOOOOOJJJOOOOOOOOSOJOOOOOOOSUVAIAIfhggvwwz{{{_{__^_|{|{{{{{{{{{____]{;otspprrtrrtnhjjhegjcFAFAOOOOOOOOOOOOOOSOOOOOOOOJOOOOO",
"OSSOOOOOOJOOOOOOOOOOJOOOOOOOSVVAIIIikjktsvt000002222220232200020222y00xprprprprrttmhkhnvsxdCAEAOOOOOOOOOOOOOOSOOOOOOOOOOOSSS",
"OOOOOOOOOOOOOOOOOOOOOOOOOOOJSVUAIAIinlmrrrrppooorororrorroooppproopoooptrrrrrtppttkhhhnyxziCAFAOOOOOOOOOOOOOOOOOOOSOOOOOSOSS",
"OOOOOOOOOOOJOOOOOOOOOOJJOOJOOUSAIIIinmlrrorrttrrttrttvtrttrttrttttrrrtrtrrttrrttrrnhhgnywzfCAEAOJOOOOOOOOOOOOSOOOOOOOOOOOSSO",
"OOOSSSUOOJOOOOOJJHHOOOOOJJOOJOOAFAAimjmrorrrorrptprrtrtrrrtrrtrrtrrrrronoopnoorrprlgeekxwzfCKFAOOOOOOOOOSVUVSOOOOJHHOOOOOOOO",
"SOOSVVSOOOOOOOSHHHHJOSOOOOOOJOOAFAAv966rorrrvrrttrrtuttrrrrrrrrttrtttrx99999999999632633z7jCIIAOOOJOOOOOOVUVSOOOOHJHJOOOOOOO",
"OOOSUUUOJOOOOOOJHHHOOOOOOOOOOOOAIAA9<//trtrrrrtrtpptttttrrttrrpttrrrro0<:::<<</::::<<<,88)lCAIASOOOOOOOOSUUVSOOOOHHHJOOOOOOO",
"OOOSVVUSOOOOOOOHHHHOOOOOOOOOOOOAIAI6:-*ttrttvsrvtrvvttttrstsssuurtttpp1:+-:+,:++///--/*88(lCAGAOOOOOOOOOSVVVSOOOJJHHJOOOOOOO",
"JJJOSOOOOOOOOOOOJJJOOOOOJJJJOOOAIII9:/+nnponpnooppopppppoppupppuppnppnv:/+::://-///-//*87)lCAIAOOOOOOSOOOOJOOOOOOOJJOSSSSOOJ",
"HHHJOJOOOOJOOOOOOOOOOOOOHHJHJJOAIII2*$&-//////////.///;///;/,/,/:;,,,,+::/+:-,::/:///:($8)lCLGAOOSOOOSOOJHJHJOOOOOOOSVVVSOOO",
"HJJOOOOOOOOOOOOOOOOOOOOOJHHHJJJAIIAx$7$_{_{{_||{__|_|__{||||_|{{__||__@/::/:+://////+:/87(lCLIASOOSOOOOOJHHJJOOOOOOOSUVUSOOO",
"HHHJOOOOOOOOOOOOOSOOOOOJHHHHJOJAFFFx$88[^^^^___^___^____^___]]___]____@:+/:,+:/+/://-/*8!(lAFEASOOOOSOOOOHHHJOOOOOOOSVUVSSOS",
"JOJOOOOOOOOOOOOOOOOOOOOOJHJJJJJANNN2$7$^_^^^_^^^___^____^____]]____]]]?::/+::/+:/://--&$8%mMRNAJJJJOOOOOOHJJJOOOOOOOSSSSSOOS",
"OOOOOOOOOOOJJJJOOOOOOOOOOOOAALIt85578$$^{^_{^^__^^______^____]]]]_?-::::::::://::<-888$///*53$iAAAAOOJOOOOOJOOOOOJOOOOOOOOOO",
"OOOOOOOOOOOJJHJOOOOOOOOOOOOAFIIv%88777!^^[^_{^^^_____^__^^___]]]_]@+::+++,:+,/////(8$8$-/:(77)lAAFAOOOOOOOOOOOOOOOOOOOOOOOOS",
"OOOOOOOOOOOJJHJOOOOSOOOOOOOAFAFw$77.<;;^^_^_^{]{^_____{_]_____]___?--/:-://-///:/:+888$://,77)jCLGAOOJOOJOOOOOOOOOOOOJOOOOOO",
"OOOOOOOOOOJJHJJOOOOOOSOOOJOAEAIv$77@___^^^_?]]]]@^]@@]@@@]@@]@@@@]=+//:-:-/-,,,/,,(888$+,/%87(jCAIAOOOOOOOOOOOOOOJOOOOOOOOOO",
"OOJOOOOJHHHHHHHJOOOSUUVSOOOAIAIt$77@_^^^^]]/--/////+-+////:-+--/+/+---/+/:,8787888$788!777$87(jCAFAJOVUVSOOOOSOSSOOOOOOSOHJH",
"OOOOOOOJHHHHHHHOOOOSUUUSOOOAGIIu$37>_^^^]^]/-/////////-/-/:/-//+++:--:---:(788888888878!87777(jCLFAOSVUUSOOOOSSOOOOOOOOOOHHH",
"SOOOOOOJHHHHJHHJOOOSVUUUOOOAGIFt$77^|||_{}{//////////////::/:+:,/:///:://:,$888$$($$%$$%$$8$8)lCIIAJOVUVSOOOOSOOOOOOOOOOOHJH",
"OOOOOOOOJHHHHHJOOOOOUSUSOJOAAAAq1tw+:<;</:/***--*-////--/-++*+*,+/-*+,+++/*37552yyyyyy2yyz22y5fAAAAOOUUUSOOOOOSOOOSSOOOOJJJJ",
"OOOOOOOOOOOOJOOOOOOOOOJOOOOJDHHAIALALKAKLATsvsw7778888888$888877877787$!7$yghjcIMKMMALAALLAAAIAHDDDJOOOOOOOOOOOOOVUUSJOOOOOO",
"OOOOOOOOOOOOOOOOOOOOOOOOOOOJHHHAIIIIIIIAIIAssss87788887778787877757777877$wejjcFIIIAIIIIIAAIIIADDDHHOOOOOOOOOOJJOVUVSOOOOOOO",
"OJOOOOOOSOOOOOSOJOOOOOOOOOOOHHDAGGIIIIIIIGPswsx$$$$%$$$$$$8$$$$$$$$$%$$!$%yhjkdCIIIIFIIIIGIIFFAHDDDJOOOOOOOOOOOOOVVVSOOOOOOO",
"OOOOOOOOOOOOOOSOOOOOOOOOOOOODHHAAAAAAAAAAAAlmmnyyyyyyyxxyyyxx1yxyxyyy1yxyypdfebAAAAAAAAAAAAAAAADDHDOOOOOOJOOJOOJOVUUOOOOOOOO",
"JHHOOOOOOOOVUVVOOOOOOJOOOOOJDHHHDDDAHHHHHHAAAAIIFIKAAIAAAIKAAIAILIIIAIAIIAIIIFAHHDDHHHAHJHDDAADAOOOOOOOOJHHHOOOJOOOOOOOOOOOO",
"HHHOSOOOOOOUVUVOJOOOOOOOOOSJDAHHDHHHHDHJHHDAIIIAAIFFIIIIIIIIIIIIIIGAIAIIAIIAAFAHHHDDHHHHHHHAAAADJOOOOOOOJHHHOOOOOOOJOOOOOOOO",
"HHHOOOOOOOOUVVVOOOOOOOOOOOOJDHHHHHHDJDHHHHDIIIIIAFIIIIIAAIAIIIIIIIIIIIIIIIIGIFAJDJDHHDHHHHHAAAAAJOSOOJOOHHJHJOOOOOOOOOOOOOOO",
"HHHOSOOOOOOUVVVOOOOJOOOOOOSJHHHHHHHHHHHHHHHAAAAAAAAAAAAAALAAAAAAAAAAAAAAAAAAAAAHHHHHHHHHHHHADAAHOOOOSOOJJHJHOOJOOOOOOOOOOOOO",
"JJJOOOOOOOOOOOOOOOOSUSSSOOOOOOJOJOJHHHHHHHHHHHHAAAHHHDHHHHDHDHHHHHHHHHHHHHHJHHDHHDDHHHHJJOJOJJOOOOOOJJJHJJOOJOOOOOOOOOOOOOOO",
"OOJOOJOSOSSOOOOOOOOSVUVSSSSOSOOOOOJDDHHHHHHHHJHAAAHHHHDHHHJDHHDHDHDHHHHHHDDJDHJDHHHHDHDOSSOOOOOOOOOSJHHHJOOJOOOOJOOOOOOOOOOO",
"OOJOOOOSSOSOJOOOOOOSUUUUSSOSOOOOOOOHHHHHHHHHHJDHAADHDHJHHHHHHHHDHHHDHHHHHHHHHHDJHHHHHHDJSOSOOOOOOOOOJHHHOOOOOOOOOOOOOOOOOOOO",
"JJOOOOOOSSSOJOOJJJJSVVUSSSSOOOOOOOJJDDDHDHHHHHHAAAAHHHDHHHDHHDDDDHDDHHDDHDHHJHHHHHHDHHDJSSOOJOOOOOOOHHHHOOOOOOOOOOOOOOOOOSOS",
"OOOOSOOOOSOOOOOOOOOOOOSOOOOJOOJOOSSSOJJJJOJOJJJJJJJJOOJJOJJOOJOJJJJSOOOJJJOOOJOHHJHJJHHJOOOOOOOOOOOOOOOJOOOOOOOOOSSSOOSOOOOO",
"OOOSSSSOOOOOOOOOOOSJJHJHJHJHJOOJSWVVVOOOOOOJOOOSSSOOSOOJOJOOOOOJOOOVVVUOOOOOOOOJJHHHHHHJOOOOOOOOOOOOOSSOOOOOOOOOSVVVVUUSSOOO",
"OSOOSSSOOOOOOOOOSOOOHHHHJHJJOOOOSVVVUOOJOOOOOJOSSSOSOOOJHJOOOOOOOOOVVVSJOOOOOOOJHJHHHHHOOOOOOOOSOOOOOOOOOOOOOOOOSVVVVSUSSOOO",
"SOOSSSSOOOOOOOOOOSOJHHHHJHHJJOOOOVVVUOJOOOOOJOOSSOSOSOOHHJOOOOOOOOSVVVSOOJOOOOJJHHHHHHHJOOOSSSSOOOOOOSSSOOOOOOOOSVVVUVSSSOOO",
"OOOOSSSSOOOOOOOOOOOJJJHJJJJJJOOOOVVUSOOOOOOOOOOOOOSOOOOJJJOOOOOOOOOSUUSOOOOOOOOJHJHJHJJJOOOOOOOSOOOOSSSSOOOOOOOOSSSUSSSSSOOO",
"HJJJOOOSVUVOOOOSOOOOOJOJOOOOOJOOOOOOOSOOOSVVUVOOOOOOOOOOOOHHHHJOJOOOOOOOOOOOOOOHHHHJOOOOOOOOOOOOUUUSVVVVSOOOOOOOOJOJJJJJJOOO",
"JJHJOOOSVVVSOOOOOOOOOOOOOOOOOOOOOOOOSOSOOSVVVVOOSOOOOOOOOJJHHHJOOOOOOOOOOOOOOOOHHHHJOOOOOOOOOOOOSUUSVVVVSOOOOOOOOOOOJHHHJOOS",
"JHHOOOOUVVVSOOOOOOOOOOOOOOOOOSOOOOOOOSSOOSVVVVOOOOOOOOOOOOJHHHJOOOOOOOOOOOOOOOOJJHHJOOOOOOOOOJOSSUUUVVVVSOOOOOOOOOOOOHHHJOOS",
"HJHJOOOUVVUOOOOOOOOOOOOOOOOOOSOOOOOOOOOOOSVVVVOOOOOJOOOOOOJHHHJOOOOOOOOOOOOOOOOOJHHJOOOOOOOOOOOOSUSSUVVVSOOOOOOOOOOOJJHHJOOO",
"OOOOOOOOOOOOOOOJJJJOOOJOSSSSOOOOOOOJOJHJHOOOSOOOOOJJJJOOOOJJJJJOOOOOOOOHHHJJOOOOOOOOOOOSUSSOOOOOOOOOOSSSOOJOJJJHJOOJJOJOOOOO",
"OOOOOOOOOOOOSOOJHHHJOOOOSSSSOOOOOOOOOHHHJJOOOOOOOOOJHJOOOOJJJJJOOOOOOOJHHHHJJOOOOOOOOOOQVVUSOOOOOOOOOOSSOOOOJHHHJOOOOOOOOOOO",
"OSOOOOOOOOOOSOOJHHHJOOOOSSSSOOOOOJOOJHHHJJSOOOOOOOOJJHJJOOOOOJOOSOOOOOOHHHHOOJOOSOOOOOOSVUUSJOOOOOOOOOOOOJOOJHJJJJOJOOOOOOOO",
"OSOOOSOOOOOOOOOJHHHJOOOOSSSSOOOSSOOOOHHHHJOOOOOOOOJJJJOOOOJOOOOOOOOSOOJHHHHJOOOOOOOOOOSSVUUOOJOOJOOOOOOSOOOOJHHJJOOOOOOOOOOS",
"SOOOOOOOJJJOOOOJOOJOOOOOSSSSOOOSOOOOOHHHJOOOOOOOOOOOJOJOOOOOOOOSQSOOJJJJOOJOOOOOOOOOOOOOSSOOOOOOOOOOOSSSOOOOJOJOOOOOOOOSSOSO",
"SOOOOOOHJHHOOOOOOOOOOSOOSSSSSSOSOOOOOJJJJOSOSOOOSOOOOJOJOOOOOOOUSUOHHHJOOJOOOOOOOOOOOOOOOOOOJOJJJJOJOSSSOOOOOOOOOOSOOOOOOOOO",
"OSOOOOOHJHHOOJOOOSSOOOOOSSSSOSSSOJJOOJJJJOOOOOOOOOOOOOOOOOOOOOSSSSOHHHJOOOOOOOOOOOOOOOOOOOOOOJJOJOOOOUSSOOOOSOOOOOOSOOOOOOOO",
"OSSOOOOHHHJOOOOOSOOOOSOOSSSSSSSSOJOJOJJOJOOOOOOOOOOOOOOOOOOOOOOSSQOHHHJOOOOSOOSOOOOOOOJOOOOJOOJJJJJJOSSSOOOOOOOOOOOOOOOOOSOO",
"SOOOOOOJJJHOOJOOOOOOSOOOOSOSOOOSOOOOOJOJJJOOOOOOOOJOOOJOJOOOSSOSSSOHJHJOOOOOOOOOOOOOOOOOOOOOOJJJJOOOOSSOOOOOOOOOOSOOOOOOOOOS"
};
