/* XPM */
static char * exit_close_01[] = {
"124 124 74 1",
"A c #050A0D",
"B c #06040D",
"C c #060C11",
"D c #070511",
"E c #08050E",
"F c #0A0C0E",
"G c #0B0610",
"H c #0B0D12",
"I c #0E1113",
"J c #110D12",
"K c #131314",
"L c #147407",
"M c #168107",
"N c #185410",
"O c #197507",
"P c #1A5D11",
"Q c #1A7C07",
"R c #1B1514",
"S c #1B740C",
"T c #1C7B0B",
"U c #1E1817",
"V c #1E7310",
"W c #1F8006",
"X c #206513",
"Y c #206F0F",
"Z c #20780C",
"a c #207F09",
"b c #21750E",
"c c #21790B",
"d c #221618",
"e c #221917",
"f c #226D12",
"g c #227C0F",
"h c #237411",
"i c #237D0C",
"j c #237F0A",
"k c #251A18",
"l c #2A1C17",
"m c #2B1D19",
"n c #2C201A",
"o c #301D17",
"p c #302C1B",
"q c #311E1A",
"r c #34211A",
"s c #3C251C",
"t c #43271D",
"u c #45291D",
"v c #4B2B1E",
"w c #4E2C20",
"x c #502C1F",
"y c #532E20",
"z c #56311F",
"0 c #573020",
"1 c #582F20",
"2 c #5C3222",
"3 c #633623",
"4 c #673824",
"5 c #6A3924",
"6 c #743E26",
"7 c #774026",
"8 c #7B4227",
"9 c #7D4428",
"! c #814527",
"$ c #864829",
"% c #884728",
"& c #8D4B29",
"( c #934E2A",
") c #96502B",
"* c #9B532C",
"+ c #A1562D",
", c #A5592E",
"- c #A95B2F",
". c #AB5C30",
"/ c #B15F30",
"ajjaajjaajagVSLLZOSZgggaaaaajjiZZTTgggggZOZZZcggggVVVVVVVVVSOOLOZgggggjjiggZZjaaajggiggggggggTTcgajajgiiZSLSOZZZZZZZZZZZZLZO",
"aajjaajaajagVSLLLOOZggijjjjjiiigTgZgggcZZZZZZggggZVVVVVVVVVLOZOLZZgggiajjggZZaaajjggggZggggggZTZgaaaaggiZSSSOZOZZZZOZZZZZZLO",
"aaajaaaaaaaZVSVLOLLZgggjjajjiggZZgZgiggZZZZgZZZggZVVVVVVVVVSOZOOLOTggijjjgTgZjaaajTggggggTgggZZTgaaajiigOVSSZZOOOZZZZZZZZZOL",
"jaaajjiaajjZVSVSZOOZZgZjajjiiigggggiijgZZOZcZZcgggVVVVVVVVLSOOZZOOgcggjiigggcjjjajgggTggZZTggTgggjjjggiiZSSLZZZZZZZZOZOZZZZO",
"ajajjjiiiijiZZgZZcgSVVVVVVVZiaggggZLLLSVVVSTZcZgggjjaaLSSSajaaZZgggggZLLOVVVVSiggggggVVVVggggWWWagiggggiggggggggaaajSVSVaaja",
"aaaaigggijjiZZgZgggSVVVVVVVgggiigggSSSSVVVSggcZgggajaaSSSLaajjgZgijigZSLLVVVVSgggggiiSVVVggggWWWWgggiiijigiiggggjaajLVSVaWaa",
"ajaaigggijagZZccgTZSVVVVVVVZggggggcVSLSVVVSgZgggiijajaLSSSajjacggiiggZSSLSVVVSgggijggSVVVgigiWWWWggggggiggggigiijaajLVVVaWWa",
"jjjjgZOgiiaiTZZZgZZLVVSVVVVZgTgZZZZVSSSVVVLgZgZggZjaajLSSSajajZZcggggZSSSSVVVSgggijiiLVSVgiggWWWagigigggijjaiiiiaaaaOLLSaaaa",
"ZZOSVVVSigjjgZZZgggijgiSVVVLTTZLLSSLSSOggTgggcOLLSLLSOLLOZgggZZTZTgTgZVVVVSSVZjjjjiijZZZZgigggigggggTgigaWWWWiiijaajjaaaaaja",
"ZZZLVVVSjjjiZZZZgggiijjSVVVZTZZLLLLLSSOggggiggOSLLLSSLLOZZggggZgZggZgOVVVVSVVZajjjiiigggggiggiiiggggTTigaWWWagijajaaiaajaaaa",
"ZZOLVVVVajjjZZZZggZjajaSVVVOZZZSSSSOOOZgggggggZSLSLLSOOOZZggggggggcZZOVVVVVVVZaaajaaagggggiggiiggggggTggaWWWagjjajaajjjjaaja",
"TZZOVVVSgjiigZZijjjajjjOSLLggiigcZZLSLOgggggggZSSLLOZZZZZZTZZZZZOOOOOLSSSSVVVZiiiiggZgggggTggOOLZZZgggigjaaaagijijjjaiiigggg",
"ZOZLVVVLgggggggaWWWjiigZTTgaaaaaaajVVVLgggigggZLOOOOZZZZZZLSSSVVVVVVVLjiiTSSSLOOOVVVVOgTgTZZZVVVVTTTgaajgggZTgggggggigigVVVV",
"ZZZOVVVSggggggiaaaWjggggZZZaaaaaaajVVVLgggggggZOOSSOLZZZZZSSSSVVVVVVVSgcgOVSSOZOZVVVVZZZZZZZZVVVVTgTTjjjgZggZgTggggiiiigSVVV",
"ZZOSVVVSiggggigaaWWiggTgZZZajajjjaaVVVSigiiiggiTigTTZZTiiiTgcLLLLLSSLZaQQTLZZLOLZVVVVLLZOZZZZVVVVZZZgiiigZZZgTZgiggiiggiSVVV",
"ZgTZZggggZgZZTTgiiiggTTZZZZaajjjijigcggZZZOSSZfXXXXXXXXXXXXXXXXXXXXXXXXXXXXXXfZLOSVSSSLOOZZZZLLSLZZOZZZZZZZZLLLLgggigZggVVVV",
"gggjWaWaZZZZLLOSSSSZgggTgggjjjiggZgWWWaSLLSVVLXGGGGEEGGGGGGGGGGGHGGGGGGGGGGGGXTOOLZOOLLLLZZZZZggZZOOSVVVSgZTSVVVZggiZZZZVVVV",
"gTTjaaaaTZZZLLSOLSLZTZTggggiiigggZgWWWaSLLSVVLXGKIIIIIIIIIIIIIIIIIIIKIIIKKKKGXTOOOZOOLSSOZZZZZZcZZLLSVVVSZZgSVVVZiiiTZZZVVVV",
"gggjWWWaggZZLOLLLSVZZZZgZggjiggggggWWWaSLSLcLgXBCCCCFFAFAFCACCCCCCFCFFCCCCCCBXaiiZOOOLLLLZZZZZZZZZOLSVVVSTZTSVVVZiijgTZTVVVV",
"iigiajajggTOVSVOjggigcgggZcLLSLZgZgjaaiLLLfNPPNqmmmmmmmmmmmmmmmmmmmmmmmrqmmmqNXXPYagiOLZZZTZZiiggZOOLVVVSggZOLSSZgggTZZZSSSS",
"iiggTZTgggTLVVVcWaaaaggggZgVVVVZZZZgggZOOTXGJGs543333333333443334344344444446sDJGXWaaZZZOZgggaaaiZOLSVVVSTTTZZZOZgZZZZZZZTZT",
"iggggZZgZTgLVVVZWaaajiggZggVVVVZZZZgiggZOTXHKIs322222222222222222222233343334sIKGfWjaTZZZggigaajjOOOSVVVSTTgZZZZZZZZZZZZOZTZ",
"gggggTZgTggLVVVgWWWaaaiggggVVVVZTZZggggZZifGKIs322222222222222222222222334444sCKGXWaagZZZZZZgaaaaLOZSVVVSZZZZZZZZZZZLLLOZOZZ",
"gggcVVVSgZZZLLOgijjgZZLZZZZZOLSVSSSgccgZOifGKCs4226!889!99!!!$9!!!!!!!!$$8444sCKGXTSLZZZZZTZZiiiigTTZZZZZZTZZTZZZLLZiaaaLSLO",
"ggTgVVVVZZgTgZcggcgSVSVSOZZggTLVVVVZgcZOZTXGKIs422!(((((((()***)*)(*)(*()$344sHKJXLVVOZZTggggiggiigggTZgggTTgiggZZZZaWWWZLLL",
"gggcVVVSZZggZZZggggLVSVLZZZZZZLVVVVZgcZZOTXGKIs3228(&(&((((((((((((((((((!444sHKGXLVVLZZZTgZgiiiigggZZZgZZZggiggTTZZaWaaOLLL",
"ggTZVVVSZZZTZZggZZgLVVVLZZZggZZVVVVZZgZZZQXGKCs4228(((((((()*)*)*((((((((!234sCKGXTLZOOZZZZgggTggggggZTgZZZTgiigZZZZaWaaZOZZ",
"ggggZZOLgigjjjagZZZOLZZZgggggggVSSVZOZYNNNp2yv4!8!$&&&((()()**++,*)((((((&!!!4yy2pNNNYiggggggLLZZWWWaZTZLVVVSTTZgZgZaaaaZLLZ",
"ggggTZZZggijaaagZZZLLLZgiggggigVVSVOOZfJKHr4447&&&&&&&()(((()*,+++*((((((((&&6344qHJGYajjgiggSLLTWWWaZZZSfVVSZZgTTTgaaaWgLOZ",
"ggZgZTZZgiijaaagOZTZOLZggggggggVVVVOOTfJKIr4327&&&&&&&&((((((*+,,+*((((((&&&&6234rIKJhajjggggLLSZWWWWZZZVfVVSZggZTZgaaaWgLLO",
"ggggggTZgiiaaaagOZZTZZZZggZZZTZVVVVLOiYJKIr4226&&&&&&&&&(((&((*****)())((((((6223rIKJYagiggggSLLZWWWWgZTSVVVSgTTTggiaaaaZLLO",
"ajjjZOLZgggggTZOSLLZgggOZZZSSSSZgZZZZQYJKIr4227&&&&&&&(&&&rUeUeeUr)))**()((((6224rIKJYQggcggZVVVViiggggggZZZZZTZLSLLOZZZOOOL",
"ajajSLLOgTgZZZZLSLSgjggZOZOSSSSgggggciYJKIr3328&&&(&(((&&&kIKKKKIk))())((((&(8224rIKJYaggggigVVVViigggTgigZZZgggLVSVLZOLLOZL",
"aajjSSSOgZTZZgZLSSVgaigOSOLSSSVggZggiahHKIr3228(&&&&&&(&&&kIKKKKKn()((((((&&(7224qIKHhaiiggggVVVVggiggTgZZZZZTggLVSSOZLOLLZO",
"ajaaLLSOgTggTZZOSLLgigiLSLLVVVVggggYYSfdkUt544!(&(&&&&(&&&kIKKKKIm(((((((((&(8345sUkdfOSSggggVVVVggggTgZZZZZZTggLSSLOZZLLLLS",
"aajjSSLZggiigggTZggjigiSVSSVVVVgjaSKKIm4428,+,,***(&&&&&&$kIKKKKIm(&&(((((&(()*)*8344mIKKYTcgZZOZZZZZZTZZZZZTTTgZZZZLOLLSSSV",
"aajjLLLZaijiiigTZZZgiigVVVVVVVVijjbKKIm4328-+,,,+*(&&&&%&&kIKKKKIm(&&&((&(((()***7344mIKKSgggZgZZZZggZZZTZZZZgggTZZZOOLSVVVS",
"ajjaOLLZjjjjiiigZZZggiiVVVVVVVVjjabKKIm4429-,,,,+*(&&(&&&&kIKKKKIm)((()(((((()***7234mIKKSiggZggZZZTTZZZTZZZZZTgZZTgSSSSSVVS",
"aaaiZZOTiiijiggZTZZgiiiVVSSVVVSjaWbKKIm4439-,,,,+*!5555555eKKKKKIk9889998$())****8234mIKKSiggZggZOZZgigjTLLLZZZZZTgTZZZZVVSS",
"TZTgggZTgggggggggTZaajaSVSLggggaaWZKKIm5439-,...,/vCKIIIIIKKKKKKKKKKKKKKHu.+,,,+,9234mIKKSajggggTZZZgWaWjVVVSZZZZTZZaWaWSVSS",
"ZggTZZZZggiggZZZTZZaajaSVSSZgggaaabKKKm5439.-,,../vIKKKKKKKKKKKKKKKKKKKKCu-+,,,,-9345mIKKSigZgggZZTZgWaWiVVVZZZZTZZZaajaSVSS",
"ZZZZZZZZgggiggTTZOOaWaaSVSSZgggWWMcIICk4328---..-/vIKKKKKKKKKKKKKKKKKKKKCv.,,,,,-9244kCIISTTTgggZOZLgWWWiVVVSZZZZggZaaaaSVVV",
"ZZZZiijigggcOOOZgZZgjggSVSVZgggfXfXrrru887$+*+,,,/vCKKKKKKKKKKKKKKKKKKKKCv.*++++*$688tmrrXXXXLSSSZTZgajaiSSSLLOOZZTZiaaiSVSS",
"gggjWWWaTggOVVVLiZZSVVVVVVVOZgOKGGR4446))))*)****-vCKKKKKKKKKKKKKKKKKKKKCu,****))*)((6445dHGKfVfVZZggZZZZiggOSLLOLOOZZZZZZZO",
"gggjWaWaZTZOVVVOiTZLVVSVVVVZggONKKe3325((((**)*,*-vIUKKKKKKKKKKKKKKKKKKKIu,**)))))(&(4334eIKNfVVVTZgTgZZZgggZSSLLLLLOZZZZZZO",
"jjijWWWaZZZSVVVZigTLVVVVVVVZgiONKIe3325(((()((*,*-uCICCCCCKKKKKKKKCCCCCCCs-**))*)*)(&5344eIKNfVfVgggggZZggiiZSSLSSLSLLLZLZLL",
"jjaaaaigZZZOLSLgigZZLLLLLOOTgiONKKe4324))((()(*+*,82222222UKKKKKKU20z22227,********)(5334eIKNVLSSgZTZZZZZggiZSSVSZZOTggigZgZ",
"aaaagTgZOZZTjiiiggTZZTZgiigigiZNKKe4325)(()))*****-/-/--,+lIKKKKIm***+---,+++********5334eIKNgaaiZZZZZZZOTZTZLSSZiggjajajjaa",
"jaaaggggLOZZgggigTZgggZgiggggiZNKIe4436)(()******++,,,+**)mIKKKKIk((((***************5344eIKNcaigZZZOOZOOcgZOLLSgjigiaaajiaj",
"aaaaiggZOZLZggggTggTZZOZgggggicNKIe4435)((()*)***+,,,-,+**lIKKKKIm(((*+++***+********5344eIKNcjggZZZZOZOZggTZSVVgajjaaaaaiig",
"jajgZZZZZOOZiggTZZZiajacZgZTZZONKKe3336))******+,++,,,,**)lIKKKKIk((()+*+*********+,+5344dKKNciggZZOZLLLLLLLLLLLgjaaigggaaja",
"gTgZSSSLLLLgiigggZZaWWWgZZZZOZSNKKe3336***,,,,*+,+*+*+++++lIKKKKIm&&((*++****+++*,,..6444UIKNOgiiZZOLLLLVVSVLZZZgajaZLLLaaaa",
"gZgTLSSSSLSgjigZZTZjaaWgZZZOLZSNKKe3325***,,,,+*****+*++++mIKKKKIl(&&(********+**+++-6344dIKNOggggZOLOSLSVVVLZZOiaaaZLLOaaaa",
"ZTZZSSVVSSSgaigZOOOaWaWgLZZLLZSNKKe3437,++,,,,*********,++lIKKKKIm(&(()*))*******+++,6445eKKNSgZTZZLOSSSSVVVLZOOiaajZLZZWaaa",
"ggZgiiigZZZgaiigLLLgijgZZgTgggZIHFKqrru875!**(****(&(()***lIKKKKIl(&&(())))((****!666smrmJFANZgggZZZgjgjgZZLOZZOZZZZZZTZgZZZ",
"gggiaaaagggijiigLLLOZZZgZggiijcNAFFeeer4337)((****(&&&())*mIKKKKIk(&&((((((((((()8334mUeeHAANcigTZTZiWaajgggZZZOLSSSZTTZSSLL",
"ggggaaaaggcgaijZSSSOZZZgZgggijcNAFHklks4448((((**((&&&((**mIKKKKIl((&(((((((()(()8444rUeeHFANcjgggggiaaajZggZZZOLLLLZgTTSSSL",
"jgggjajjgggijijZSSSOZTZggggjjacNAAHkker4337(&((((((&&&((()lIKKKKIl(&(((((((((*(((6344rUeeFAANOiggggggaaajZTgZZZOLLOLZgggSVSL",
"OOOZWWWagggiaaaiggTgiggLSSSggicNAFFkker4326(&&((()(*))***+mIKKKKIl)(****)((((((((6344reekFAANVSVSZggTgZZgggiiTZTgigTZTZZZZZZ",
"LSSOWWWWgigiaaajiajjjgjLVSVZggZNAFHeker4338(&((((()*****+*lIKKKKIl())****)(((((()6244rekkHFANVVVVTZggZZZgjjjjiggggigZgTZZZTZ",
"SSSZWWWWgigjajaaijjjjjjLVSSgggONAAFkker3336)(((((((*))*+**lIKKKKIm))**+***(((((()6224rekkFAENVVVVggggZgZgiijjiggiggiZZZZZZZZ",
"SSSOWWWagiigjaaaajjiiigLSLSgggONIIKkker4337(&&(((()*))**+*mIKKKKIl))******(((((()6223qUeUINNNVVVVZggZZZZgggggigiggggggZZZZZZ",
"giigijiaajagSLOgiijjiijaaaajgjgfffXFFAk3226(&((()****)()))lIKKKKIm(&(()(()(((()((4uvvRAFFXfffgjiigggZVVVSaiiaaaajZZZggggZZLL",
"jajjjjiaaaagSSSTjjjiijjaaaWjgggfffXAFAd3226(&&()))****)(()mIKKKKIm(&(()()*()())((3tvvRAAFffffjjjjggiZVVVSajiaWaWiZZZggggOLSL",
"ajjijiijaaWiVSVTjggggjjaaaWajjcfffXFFAe3226)((()))*)))))((kIKIIICe(&&(((((((()*()3tvvRAAFXfffjajggggZVVVSajjaWaWiZZZggggLSOO",
"ajjiijiijaagSSVOggggggiaaaWjjgOfffXFFAd3225(&&(*)()(((((((semmkmks(&&((((((((&&%$2tvxRAAFXfffjajjgZgZVVVLjjjjaaWgOZZggggZLLO",
"ajjjiigZSSVOjiiggZgcZggaaaWSVVVfffXAAAd3223544!(((((&&(((&&&&(((((((&&(((((((6222vuvxRAAFXfffaaaaSSVSOZZZggggiijZLZZggiiiiig",
"ajjjiigZSSVZjiigggggZgZaaaaSVVVfffXAFAd32235449(((((((((&(&&&&&(((&((((((((((6233vuvvRAAFXfffaaaaVVVSOZLZggigigagZZZiijijjjj",
"jijjigcZVVVZjiggggigTgZaaaaSVVVfffXFFAd33344448(((((((((&&(&&(((&((((((((((((8244xvvyRAAFXfffaaaaVVVSLOLOggjjiiiTTggiiiijaaj",
"jjijgggZSSVOigggggigZgZajajSVVVVVVfAFARyvv24438(&(((((((((&&&((((((((((((((((8244wtttRAFFfVVVajjaSSSSSSLOgiigZZOZZZZiiiijaaj",
"aaajTZZZOZOTiigggggZOZOjajjgZggjjaYAFAJkkUs4338(&&((((((((((((((((&&(&&&&&(&(6233rUkkJAAFZWaagggZLZZOLSSZajaOVVVVVVVZggggjaj",
"ajajggZZOZZgigggggiZOOLaaaagOcgggahAFAKmmet5448((((((((((((((((((&&&&&&&&&&&(6234reklJAAFZWaaggiZSOZZLSSTajaOVVVVVVVZgggjjaa",
"aaaaZZOOZZZgggggijaZSOSaaaagZcgggahAFAKmmet4338((&((((((((((((&&(&&&&&&&&(&&(6233sekkJAAFZWajgggZLOOLVVVOajaOVVVVVVVZiiiijaa",
"ajaajjjgZZggggZZOOZZOZZjaaagZggjgaYAFAKmmet4338)()(**********))))(&&&&&&(((&(8334selkKFAFSjgggZZZZZZZZOLZigjZSSSLSSSZgggijaa",
"jjijWWWWgiggZgcSVVVOgigggggZZggaaaVAFAKmlks432!+++,,-.,,,++++++++*(((((((((((8334selmKFFFfSVSZZZZgiiiaaaiiijigggZZgTgiggaaaj",
"gggjWWWWZggTgZgSVVVZgggZggcZZZZajaVFFFKkkes432!+*+,,,,+++*********(((()((((((8234sekkKFFFYLSSggZZgigijjjijijiTZZZZgZggggjajj",
"gggiWWWWgggZZZgSVVVOigTZZZOZZOZaaaYBEBJmmes433!+++,--.+****++++++*()(()((((()8344skmmGBEEfLVSTgZZggggjjiiaaaiTZZZZZTZZTTiaji",
"jgiiijjiZZZggggZSSSZggZZOOZgggiOLOVPXXNRRKr4339**)*****)*))))****)(((((((((((8233rKUKPXXXVSVVgiigijiggggZOZZZZZZZOZZjjaaiggg",
"aijgVVVVLLLgaijaajiTZgZZZZZjaajVVfVVVVXBAAm4439)(((((((((((((((((((((((&(((()6y03lAFBfcSLVVVVaaaaaaaagZgLVVVSZOZZOOOaWWWjTgg",
"jjjgVVSSSLLZjjajiijgZZZZOZZjaaaVVVfffVXAFAm4429)&((((((((()(((()((((((((((()*6xy2lAFAfVVVVVVVjaaaaaaagTTLVVVSZZZZLZLaWWWiTgi",
"jgigVVVVSSSTjjjiigggZZOOZOOjaaaVVVVffVXEFAm4439*))*(((()((()((((((((&&((&())+7vy2kAFEXSVSVVVVaajaWaaaggTLVVVSZZZOLLLaWWWgZgi",
"gggTZOOOZOLgajaaaaaigTZZZZZgjggOSOSVfVXEFAm4335888&)(((((((()(()))))(()))&7893xy2lAFAXSVVZcZZjjaaZOLZZZZZOLZZZTZZZZLggiigTTg",
"igTggTZTTTZiaaWWWWWjggTgZZZggTgggicffVXEFAm4333333$)()((((((()())********!2332yy0kAFEfSVVaajjajajVVVSZZZggiiggigTTTZZOZZTgZZ",
"gggTggZTTZTiaaaWWWWjggggZZZgZZZgggZVfVXAFAm4233433&)()((((((()((()*******$3332yy2kAFEfSVViajiajaaVSVLZZZTgiigggigZZZZZZZZTZZ",
"ggggZZggZggjWWWWWWWjgggTZZZgZZZgggZVVVXAFAm4334444&)))()(((((())))+*+++**$3432yy2lAFAXVVVgaiijajaSVVLTTTiijjggigZLLOOOZZggTg",
"aaiiaaWaLLOZiiijjaajjiiOSSLigggggggOOTfEFARrrqv332&,++*****))((((())))())!244vmqrRAHAfgZZjaaajjjaZZZZTTTOSLSZiggjaaagTTZSSSS",
"aajjWWWjVVVLZZZZZZZgajjLVVVTgggggggggafEFFKkeUu432&,+,++*****(&&&((((((()!344tUekKFFAYaijajjajjaaggZZgTTLVVVLiigaWWWigggVVVV",
"aajiWWWjSSSLLZTZZZgjajaLVSSggZgggggggjfEFAKmkev432&,++++*****)(((((((((&(!344tekkKFCEhaggajaaaajiggTZZZTLVVVOiigaWaagZggVVVV",
"aajiWWWaSLSSSLZZZggjjjjLSSVZZZgggggggafBFAKkkeu432&+**+*)**)))((&&((&((&(9334uekkKAFEYaiijaajaaajgggZZZTLVVVLjigjWWWgZTZVVVV",
"ggZggggggggggggZZZZjaajgZcZaaaaZZggjjaYBFAKmkkv433!(&(((()****((((&&&&&&(8334uekkKFFEYaggLSSSgjjiZgZZZZZgiiigggTgggggTZZVVVV",
"igcZZgggajiigggZZZZjajaggggaWWWZZZgaaaYBFAKmkkv433!(&&((((****)(((&&&&&&(8233tekmKFFAYagiVVVViiiiZgZZZZZgaaajgTgggTTZgTgSVVV",
"ggggcgijajjggggZZZZjajjiigZaWaWZZZgajaYBAAKmmkv433!(((((((*****((((&&((((!234uekmKAAEYagjVVVSjiggZZTZZZZgaaaiZggggggZZZTSVVV",
"igiigggjjiigiigZOZLjajjjjjgjaaWZZgiajahNINKkeev433!(((&(&()))))((&&&&&&&&8234tUeeKIIIYajjVVVSjiigZZTZZZZgjjjgZZZZZggTTTTSVVV",
"iiiggTgigggiiijZVSSSOLZjaaajjajZOLZiijOfXfXEFAr422344443443434333433333332223qAFEXfffOiiigZZZggZgaaaiLZZgjijigigSVVVZgggZOOO",
"ggggggiiiggijijZVVVSLSLaWaajjaaOSLZgggOfffXEFAr322333333443333232222223322223rAHEXVffOiggggggggggaajiLZZgajjiiiiSVVVZggiZZZT",
"ggggggggiggjjjaOVVVSLSOaWaWjjjaLSSOcggOfffXEFAr423444444443444333233333343224rAFEXVffZgggZggggiggaaaiOZZiaaaijijSVVVTiijZZOZ",
"igiiggggZgZgiiaOVSSLOOOaajajiigLLOOgggOfffXEHAm2yy002222222202yyyyyyyyyyyyywyoAFEXVffOiigZTZZggggaaigOZgggigiaijSVVVZggiZOZZ",
"jjaaaaajVVVOggggjjiggggZZZZgZggZZggiggOfffXEFAKkeekeeeeeeeeeeeeeeeeeeeeeeeeekKAFBXVffZjjjTTZZgggZSSSLOZgLVVVSZZZZZZZVVVVOOZZ",
"jaaaajagVVVOggggjjjgZTgggZZgZcgggZgggiOfffXEHFUkeekkkeeeeeeekekkkkkkkkkkkkkkmRAFEXfffZaijgZZZgggZLLLSZggLVVVLgZZZgZZSVVVOZZZ",
"aaaaaaajVVVLgTZgjjjgcgggZZgZZggjggggggOfffXEHFUkeeeUUUUUUUUUeeeeeedeeeeeeekkkRAFEXfffZjgggZZZgggZOLSSZgZSVVVZgZTZZZZVVVVZZZZ",
"jjijaaaiVSSOgZZgjigTTgZOLLOZZZTggiggggOVVVXEFFUkeemrrqqrrrrrrrrrrrrrrqrrrmkkmRAFBXVVVOZggZZZZgggcZZZZZgZLSLSZggggZTZSVSSZZZg",
"VVVVggggggZZZOOOLLZZZTZVVVVSLLZOLSOgggijiafEFFUmkew3323332322222233322223vekmRAFBfagjLSSLZZZgggggggiggggijaaiiijaaajggiggZZg",
"VVVSgggggZZZZOOOLOZZZZZVVVVLOOOSSSLZgggggafEIFKkkev2222222120222222222y02vekmRFFBfQciOSSLggggggggiiiggiijiajigiiajaagZgggZZc",
"VVVVgggiZZccZZZZLLZZZZZVVVVZgOLSSVSggggggafBAEKmmkv3333333333222233333323vklmRBEBfQgiZSSLgggZZgggiiiiiijaaajiijijaaagZggZZZg",
"LSSOggggZZgOVSSOZZZZZOZSSVVZgZLSSVLiggggjahPPPNJKKdllllllllllllklllklkklleKKJNPPNYigggOZZZZZZZgggOOOZgiggTggggijiajjgggZZZZg",
"gggggggggZgSfVVOaigOZZZgjiiSSLLSSSSgZggiiaZVfVXBFAAAAAAAAAAAAAAAAAAAAAAAAAAFBXVffSgZgjaaaSVVVZggZVVVVgggOVVVOjiigZZZZggggggi",
"gggggggggcTSVVVZaigOOZZgggiSSSSSVSLiggggiaSfffPEIHHFFFFFHFFFFFFFFFFFFFHHFHCIFPffXVgZZjjjjVVVVZZgZVVVSiggOVSVZajggggggggggggg",
"iggggggigZZSVVVZajjZOZZgigiVVVVVVSOjggggjaOffVPBEEEEEEEEEEEEEEEEEEEEEEEEEEEABNfffVgZZjajiVVVVZggZVVVSajiSVVVOjiiggggggZZgggg",
"iiggTgggOLOLLSLZgZgZOZZgggicZcTZZZZTZZZZgiOfffXXXXXXXXXXXXXXXXXXXXXXXPPXXXXXXXfffSgZZgjjiZOZZigggOOOZggTZcggijijZOZZiajjLLOO",
"ggggggZZSSSZgggZOOOZZZOZgggaaaagiigOZZOZZgSfVfVSSLSSVVSLLSVVVVVVVVVVVVSSSVVVVVfffSgZgggggiajjiiggjjjgZZZiWWWagjjOVSSaajaSVVV",
"ggggggZZSSVLgggZOOOZZZLZgggaajjggggZZZZZZgOVVVVVVVVVffVVVVVfffffVVffffVVVVVVfffffVggggiiggiiiiiigjjjgZZZgaaWaiijSVSSjaaaSVVV",
"gijiggZLVVVZgcgZOOLZcZZTgiiaajjggggOOZZcZgOVVVVVVVVVVVVVVVfffffVVffffVVVVVfVfffffVgZgggjiiiggigggiigiZZZiWWWajijSVVVjaaaSVVV",
"ggTZSVSSZZZZZZZZSSSZgZTZZZZZZOZggggaaaaZZZggcgOSLSVVVVVVVVVVVVVVfVVVfVVVVVVVVVSSSZgggggiiiiiiaaajijgggZggaaaaiiiZZZZgggiZOOZ",
"cZOOVVVSggggZZZOVVVZicgZLLSVVVVgggiWWWaZZZiWaWcVSVSLSSVVVVVVVVVVVVVVVVVVVVVVfSjggggggggggijjjaaaajjjgggTZggggjjjjjaagTTZgigg",
"ZZZZVVVSggZZZZgOSVVZiggZOZOVVVVgggiWaWaZTZiaaaZVVVVVSSVVVVVVVVVVVVVVVVVVVVVVVSgggZggggggZiggiaaaaijigggTggggjaaajjjjiigggggc",
"ZZZZVVVSgZZcgggZSSVZjggZZZZVVVVTggiWWaacgciaaWZVVVVVVVVVVVVVVVfffffVVVVVVVVVVOajiggggggggggggjaaaiiiggggggggaaaaaajjgggggTgi",
"cZggZOOcggggiiiiiigjajjZOOLVVVVZZTgjjigZggZZZOOLZOZgggOOZOccZZgjjgSLOLOOOOZZOOOZZgajaOLOZgggZOOLOigggZggZLOLLZZOgaaagZZZZggg",
"gggggZZggggijijjajaajaaZLOLVVVSggZTZZZZZZZZSVVSgggaaajgZggjajjWWWaZgZcZgggijgLVVViaaaOVSLgggZVVVSggggZggZVSVVVVVgajaZZZZZZgg",
"ggggcgZgggggjjjjajjaaajZLLSVSSLZgggZZZZZZZOSVVLZcgiajjcZZZgjjjWWWaZZOOZZgggggOVSViaajZSLLgggZVSSSggggZggZVSSVVVVgaajgZZTgggi",
"iggigggTgigijgjjaaaajjjcZLLSLLOgggggZggZZZLVSVSZZTijjjZZZZjjjaWWWaZgZOOZggggiOVSSiaaaLSSLggggSSSLgiigcgiZSSSSVVVgaaagZZZggig",
"aaajLLLOggggSSSSLOLiaaajjiigZZTZZggVSSLOOZTZTZOOZZgggggZZZgjjgOZZZgggOVVVSgggggggijiiggggZZZZggggijajiiigggigTZZgjiiggggajja",
"jjjjSSVLigiZVSVVSSLgjjajaaagZZTcZZZVVVSOZZZZgZOOZZgiggccgcggggLOLOggiZVVVVggggiggggggggigZLLLggggjaaajiijigigggggiiiggggjaaj",
"jjaaVSSLgijgVSSVVSSgaaajjjjgggccZZZVVVVLLOZZZZOLOZgggggggZggggLSSLgciZVVVSgggggggggggggggZOOOggggjjjaiiiiigggTgggiigggggaaaa",
"jjjjVVSOggjgSSSVVSVgajjjjjjigZgZZZOVVVVSSLZZZZOLZZZZccZgZZggggLLSLcciZVVVSgggggggggggggggZLOOZZTgjjjjiiiggggTZcZgiggggggaaja"
};
